# xmcd CD database file
#
# Track frame offsets:
#	150
#	12966
#	33351
#	51414
#	66136
#	84249
#
# Disc length: 1246 seconds
#
# Revision: 0
# Processed by: cddbd v1.5.1PL2 Copyright (c) Steve Scherf et al.
# Submitted via: CDex 1.60beta1
#
DISCID=4304dc06
DTITLE=SUBARU - X'mas Special Selection
DYEAR=2004
DGENRE=Other
TTITLE0=Last Chiristmas - Human nature
TTITLE1=Silent Night - Janet Kay
TTITLE2=All I Want For Chiristmas Is You - Millennia
TTITLE3=When You Wish Upon a Star - Clementine
TTITLE4=Angeles Blush - Basia
TTITLE5=We Wish You a Merry Chiristmas - Patti Page
EXTD=YEAR: 2004
EXTT0=
EXTT1=
EXTT2=
EXTT3=
EXTT4=
EXTT5=
PLAYORDER=
